<svg xmlns="http://www.w3.org/2000/svg" viewBox="0 0 83.34 83.34"><defs><style>.cls-1{fill:#fff;}.cls-2{fill:#ff598f;}</style></defs><title>arrow_down</title><g id="Layer_2" data-name="Layer 2"><g id="Layer_1-2" data-name="Layer 1"><path class="cls-1" d="M57.09,43.31a4.16,4.16,0,0,0-5.87-.39l-5.38,5.37V25a2.81,2.81,0,0,0,0-.41,4.17,4.17,0,0,0-8.33.41V48.29l-5.38-5.37a3.26,3.26,0,0,0-.45-.46,4.17,4.17,0,0,0-5.42,6.33l12.5,12.5h0a4.15,4.15,0,0,0,5.87,0l12.5-12.5h0A4.17,4.17,0,0,0,57.09,43.31Z"/><path class="cls-2" d="M41.69,0h0A41.67,41.67,0,1,0,83.34,41.68h0A41.66,41.66,0,0,0,41.69,0ZM57.13,48.79l-12.5,12.5a4.15,4.15,0,0,1-5.87,0h0l-12.5-12.5a4.17,4.17,0,0,1,5.42-6.33,3.26,3.26,0,0,1,.45.46l5.38,5.37V25a4.17,4.17,0,0,1,8.33-.41,2.81,2.81,0,0,1,0,.41V48.29l5.38-5.37a4.16,4.16,0,0,1,5.87,5.87Z"/></g></g></svg>