<svg xmlns="http://www.w3.org/2000/svg" viewBox="0 0 291.32 291.32"><defs><style>.cls-1{fill:#3f729b;}.cls-2{fill:#fff;}</style></defs><title>instagram</title><g id="Layer_2" data-name="Layer 2"><g id="Layer_1-2" data-name="Layer 1"><path class="cls-1" d="M145.66,0A145.66,145.66,0,1,1,0,145.66,145.67,145.67,0,0,1,145.66,0Z"/><path class="cls-2" d="M195.93,63.71H95.38A31.7,31.7,0,0,0,63.71,95.38V195.94a31.7,31.7,0,0,0,31.67,31.67H195.94a31.7,31.7,0,0,0,31.67-31.67V95.38A31.71,31.71,0,0,0,195.93,63.71Zm10,18.32h3.59v27.21l-27.41.09L182,82.12Zm-60.25,36.21c22.73,0,27.42,21.34,27.42,27.43a27.42,27.42,0,0,1-54.84,0C118.23,139.58,122.93,118.24,145.66,118.24Zm64,75.72a15.72,15.72,0,0,1-15.71,15.7H97.07A15.72,15.72,0,0,1,81.36,194V127.42h22.76a52.21,52.21,0,0,0-3.31,18.25,44.82,44.82,0,1,0,89.63,0,52.24,52.24,0,0,0-3.3-18.25h22.49V194Z"/></g></g></svg>