<svg xmlns="http://www.w3.org/2000/svg" viewBox="0 0 291.32 291.32"><defs><style>.cls-1{fill:#ff598f;}.cls-2{fill:#fff;}</style></defs><title>linkedin_wild_watermelon</title><g id="Layer_2" data-name="Layer 2"><g id="Layer_1-2" data-name="Layer 1"><path class="cls-1" d="M145.66,0A145.66,145.66,0,1,1,0,145.66,145.66,145.66,0,0,1,145.66,0Z"/><path class="cls-2" d="M82.08,200.14h27.27V109.23H82.08Zm106.26-94.06c-13.24,0-25.08,4.83-33.49,15.5V108.93H127.48v91.21h27.38V150.81c0-10.42,9.55-20.59,21.51-20.59s14.91,10.17,14.91,20.34v49.57h27.27v-51.6C218.55,112.69,201.58,106.08,188.34,106.08Zm-92.75-5.94A13.66,13.66,0,1,0,81.93,86.49,13.65,13.65,0,0,0,95.59,100.14Z"/></g></g></svg>