<svg xmlns="http://www.w3.org/2000/svg" viewBox="0 0 973.76 161.77"><defs><style>.cls-1{fill:none;}.cls-2{fill:#fff;}</style></defs><title>logo_white</title><g id="Layer_2" data-name="Layer 2"><g id="Layer_1-2" data-name="Layer 1"><path class="cls-1" d="M185,30.1H163.23V76.49h21.53q12.33,0,18-7.21a24.75,24.75,0,0,0,5.64-15.57,29.6,29.6,0,0,0-4.8-16Q198.76,30.1,185,30.1Z"/><polygon class="cls-2" points="0 30.1 35.95 30.1 35.95 154.66 66.25 154.66 66.25 30.1 103.66 30.1 103.66 0.84 0 0.84 0 30.1"/><path class="cls-2" d="M233.77,79.32a60.89,60.89,0,0,0,5.95-26.65q0-24-15.78-37.94T179.53.84H132.92V154.66h30.31V105.75H183.5l32.4,48.91h35.32l-35.74-55.8A44.22,44.22,0,0,0,233.77,79.32Zm-31-10q-5.64,7.22-18,7.21H163.23V30.1H185q13.8,0,18.61,7.62a29.6,29.6,0,0,1,4.8,16A24.75,24.75,0,0,1,202.73,69.28Z"/><polygon class="cls-2" points="511.46 87.57 476.34 0.84 439.98 0.84 510.2 161.77 580.42 0.84 544.48 0.84 511.46 87.57"/><polygon class="cls-2" points="637.27 92.17 703.32 92.17 703.32 62.91 637.27 62.91 637.27 30.1 711.88 30.1 711.88 0.84 606.97 0.84 606.97 154.66 714.81 154.66 714.81 125.4 637.27 125.4 637.27 92.17"/><polygon class="cls-2" points="776.46 0.84 746.16 0.84 746.16 154.66 848.78 154.66 848.78 125.4 776.46 125.4 776.46 0.84"/><path class="cls-2" d="M954.32,75.34a89.53,89.53,0,0,0-18.6-9.09q-13.38-5-21.42-10.55t-8-12.85q0-8,5.54-11.92t15.57-4Q942.2,27,962.26,38l11.5-23.2a97.78,97.78,0,0,0-22.37-11Q939.9,0,922.76,0,901,1,888,13.17t-13.06,32q0,13.59,6.37,22.58a45,45,0,0,0,15.16,13.79,198.14,198.14,0,0,0,21.94,10q22.36,8.77,22.36,20.69,0,9.21-7.1,13.27a33,33,0,0,1-16.72,4.08,54,54,0,0,1-18.39-3.76,72.59,72.59,0,0,1-18.19-9.62L867,139.82a85.38,85.38,0,0,0,25.29,12.44,95,95,0,0,0,27.38,4.07q16.5,0,28.42-6t18.08-16.1a41.61,41.61,0,0,0,6.16-22q0-13.78-5.12-22.78A40.78,40.78,0,0,0,954.32,75.34Z"/><path class="cls-2" d="M364.52,12.15A11.28,11.28,0,0,0,352.18.94,11.53,11.53,0,0,0,342,12.55V55.84l-73,49.18v22.71l73-36.38V134l-23.63,10v9.65l34.37-2.43v0l35.45,2.51V144l-23.63-10V91.35l72,35.85V104.82l-72-48.45Z"/></g></g></svg>