<svg xmlns="http://www.w3.org/2000/svg" viewBox="0 0 291.32 291.32"><defs><style>.cls-1{fill:#26a6d1;}.cls-2{fill:#fff;}</style></defs><title>twitter</title><g id="Layer_2" data-name="Layer 2"><g id="Layer_1-2" data-name="Layer 1"><path class="cls-1" d="M145.66,0A145.66,145.66,0,1,1,0,145.66,145.66,145.66,0,0,1,145.66,0Z"/><path class="cls-2" d="M236.72,98.13a72.2,72.2,0,0,1-20.39,5.43A34.72,34.72,0,0,0,232,84.49a72.1,72.1,0,0,1-22.55,8.37A36,36,0,0,0,183.49,82C163.9,82,148,97.4,148,116.43a33.33,33.33,0,0,0,.92,7.85,101.78,101.78,0,0,1-73.16-36A33.43,33.43,0,0,0,71,105.6a34.15,34.15,0,0,0,15.78,28.67A36.08,36.08,0,0,1,70.66,130v.43c0,16.7,12.23,30.62,28.47,33.79a36.86,36.86,0,0,1-9.35,1.21,35.82,35.82,0,0,1-6.67-.62,35.38,35.38,0,0,0,33.16,23.92,72.54,72.54,0,0,1-44.09,14.75,74.1,74.1,0,0,1-8.47-.48,102.69,102.69,0,0,0,54.42,15.48c65.29,0,101-52.51,101-98L219,116A70.66,70.66,0,0,0,236.72,98.13Z"/></g></g></svg>